<svg width="28" height="28" viewBox="0 0 28 28" fill="none" xmlns="http://www.w3.org/2000/svg">
<path d="M12.2281 23.5186C12.3276 23.6167 12.4457 23.6939 12.5755 23.7458C12.7052 23.7977 12.8441 23.8231 12.9838 23.8206C13.1235 23.8182 13.2613 23.7878 13.3892 23.7314C13.517 23.6749 13.6323 23.5935 13.7283 23.492C13.8243 23.3904 13.899 23.2707 13.9482 23.1398C13.9973 23.009 14.0198 22.8697 14.0144 22.73C14.0089 22.5904 13.9757 22.4532 13.9166 22.3266C13.8574 22.2 13.7736 22.0864 13.6701 21.9926L6.33546 15.0556L24.1491 15.0556C24.4275 15.0556 24.6946 14.945 24.8915 14.7481C25.0884 14.5511 25.1991 14.2841 25.1991 14.0056C25.1991 13.7271 25.0884 13.46 24.8915 13.2631C24.6946 13.0662 24.4275 12.9556 24.1491 12.9556L6.33266 12.9556L13.6701 6.0158C13.7736 5.92198 13.8574 5.80842 13.9166 5.68179C13.9757 5.55517 14.0089 5.41801 14.0144 5.27836C14.0198 5.13872 13.9973 4.99939 13.9482 4.86856C13.899 4.73772 13.8243 4.61801 13.7283 4.51644C13.6323 4.41486 13.517 4.33347 13.3892 4.27703C13.2613 4.22059 13.1235 4.19024 12.9838 4.18776C12.8441 4.18528 12.7052 4.21072 12.5755 4.26258C12.4457 4.31445 12.3276 4.3917 12.2281 4.4898L3.24286 12.9878C3.01976 13.1987 2.87218 13.4772 2.82286 13.7802C2.7899 13.9316 2.79086 14.0884 2.82566 14.2394C2.87653 14.5381 3.02292 14.8122 3.24286 15.0206L12.2281 23.5186Z" fill="#111111"/>
</svg>
