<svg width="24" height="16" viewBox="0 0 24 16" fill="none" xmlns="http://www.w3.org/2000/svg">
<path d="M1.53755 10.2482C2.59622 5.16447 7.0218 1.55229 12 1.55229C16.9782 1.55229 21.4022 5.16447 22.4624 10.2482C22.5044 10.45 22.6248 10.6267 22.7972 10.7397C22.9695 10.8526 23.1797 10.8925 23.3814 10.8505C23.5831 10.8085 23.7599 10.6881 23.8729 10.5158C23.9858 10.3434 24.0257 10.1333 23.9837 9.93156C22.7776 4.14928 17.7326 0 12 0C6.26739 0 1.22244 4.14928 0.0163079 9.93156C-0.0256848 10.1333 0.0141792 10.3434 0.12713 10.5158C0.240081 10.6881 0.416867 10.8085 0.618597 10.8505C0.820327 10.8925 1.03048 10.8526 1.20281 10.7397C1.37515 10.6267 1.49556 10.45 1.53755 10.2482ZM12 4.65688C10.5591 4.65688 9.17716 5.22928 8.15827 6.24817C7.13939 7.26706 6.56698 8.64897 6.56698 10.0899C6.56698 11.5308 7.13939 12.9127 8.15827 13.9316C9.17716 14.9505 10.5591 15.5229 12 15.5229C13.4409 15.5229 14.8228 14.9505 15.8417 13.9316C16.8606 12.9127 17.433 11.5308 17.433 10.0899C17.433 8.64897 16.8606 7.26706 15.8417 6.24817C14.8228 5.22928 13.4409 4.65688 12 4.65688ZM8.11927 10.0899C8.11927 9.06066 8.52813 8.07358 9.25591 7.34581C9.98369 6.61803 10.9708 6.20917 12 6.20917C13.0292 6.20917 14.0163 6.61803 14.7441 7.34581C15.4719 8.07358 15.8807 9.06066 15.8807 10.0899C15.8807 11.1191 15.4719 12.1062 14.7441 12.834C14.0163 13.5618 13.0292 13.9706 12 13.9706C10.9708 13.9706 9.98369 13.5618 9.25591 12.834C8.52813 12.1062 8.11927 11.1191 8.11927 10.0899Z" fill="#FF834F"/>
</svg>
