<svg width="16" height="16" viewBox="0 0 16 16" fill="none" xmlns="http://www.w3.org/2000/svg">
<path d="M14.8786 9.45156C14.9529 9.69728 15.1815 9.85728 15.4272 9.85728V9.85157C15.5162 9.85241 15.6041 9.83231 15.6839 9.79288C15.7637 9.75346 15.8331 9.69582 15.8865 9.62462C15.9399 9.55342 15.9758 9.47066 15.9913 9.38302C16.0068 9.29538 16.0015 9.20532 15.9758 9.12012C15.9581 9.06298 14.0666 3 7.99904 3C1.93149 3 0.0417354 9.06298 0.0245922 9.12584C-0.0668382 9.4287 0.104594 9.74299 0.407457 9.83443C0.710321 9.92586 1.03033 9.75442 1.12176 9.45156C1.18404 9.23441 2.79551 4.14288 7.99961 4.14288C13.2026 4.14288 14.8083 9.23041 14.8786 9.45156ZM5.71614 9.85728C5.71614 9.25106 5.95696 8.66967 6.38562 8.24101C6.81428 7.81234 7.39568 7.57152 8.0019 7.57152C8.60812 7.57152 9.18951 7.81234 9.61817 8.24101C10.0468 8.66967 10.2877 9.25106 10.2877 9.85728C10.2877 10.4635 10.0468 11.0449 9.61817 11.4736C9.18951 11.9022 8.60812 12.143 8.0019 12.143C7.39568 12.143 6.81428 11.9022 6.38562 11.4736C5.95696 11.0449 5.71614 10.4635 5.71614 9.85728ZM8.0019 6.42864C7.09257 6.42864 6.22048 6.78987 5.57748 7.43287C4.93449 8.07586 4.57326 8.94795 4.57326 9.85728C4.57326 10.7666 4.93449 11.6387 5.57748 12.2817C6.22048 12.9247 7.09257 13.2859 8.0019 13.2859C8.91123 13.2859 9.78332 12.9247 10.4263 12.2817C11.0693 11.6387 11.4305 10.7666 11.4305 9.85728C11.4305 8.94795 11.0693 8.07586 10.4263 7.43287C9.78332 6.78987 8.91123 6.42864 8.0019 6.42864Z" fill="#FF834F"/>
</svg>
