<svg width="16" height="16" viewBox="0 0 16 16" fill="none" xmlns="http://www.w3.org/2000/svg">
<path d="M8 14.9959C7.81777 14.9958 7.64306 14.9232 7.51428 14.7943L1.30988 8.57157C0.47028 7.71501 0 6.5634 0 5.36398C0 4.16456 0.47028 3.01295 1.30988 2.15639C2.16061 1.30574 3.31441 0.827854 4.51747 0.827854C5.72053 0.827854 6.87433 1.30574 7.72506 2.15639L8 2.39466L8.25661 2.13806C8.67724 1.71282 9.17828 1.37552 9.73054 1.14581C10.2828 0.916096 10.8752 0.798555 11.4734 0.800033C12.0708 0.797356 12.6629 0.913454 13.2151 1.14158C13.7674 1.36971 14.2687 1.70531 14.6901 2.12889C15.5297 2.98545 16 4.13706 16 5.33649C16 6.53591 15.5297 7.68752 14.6901 8.54408L8.48572 14.7668C8.42428 14.8356 8.34961 14.8914 8.26616 14.9308C8.18271 14.9701 8.0922 14.9923 8 14.9959ZM4.52663 2.16555C4.11041 2.16252 3.6977 2.24195 3.31233 2.39924C2.92696 2.55654 2.57655 2.78859 2.28132 3.08201C1.68642 3.67968 1.35245 4.48863 1.35245 5.3319C1.35245 6.17518 1.68642 6.98413 2.28132 7.5818L8 13.3371L13.7095 7.60013C14.0052 7.30479 14.2397 6.95406 14.3998 6.56801C14.5598 6.18195 14.6422 5.76814 14.6422 5.35023C14.6422 4.93232 14.5598 4.51851 14.3998 4.13246C14.2397 3.7464 14.0052 3.39568 13.7095 3.10033C13.4166 2.80636 13.0679 2.57387 12.6839 2.41649C12.2999 2.25912 11.8883 2.18003 11.4734 2.18388C11.0571 2.18085 10.6444 2.26027 10.2591 2.41757C9.87369 2.57486 9.52328 2.80692 9.22805 3.10033L8.48572 3.84266C8.3546 3.96707 8.18075 4.03643 8 4.03643C7.81925 4.03643 7.64539 3.96707 7.51428 3.84266L6.77195 3.10033C6.47823 2.80361 6.12851 2.56817 5.74306 2.4077C5.35762 2.24723 4.94415 2.16492 4.52663 2.16555Z" fill="#FF834F"/>
</svg>
