<svg width="28" height="28" viewBox="0 0 28 28" fill="none" xmlns="http://www.w3.org/2000/svg">
<path d="M8.1519 3.59274C9.18447 3.4168 10.2434 3.47484 11.2505 3.76257C12.2577 4.0503 13.1874 4.56039 13.9712 5.25524L14.0144 5.29374L14.0541 5.25874C14.8021 4.60225 15.6816 4.11283 16.6338 3.82313C17.586 3.53343 18.589 3.45012 19.5759 3.57874L19.8629 3.62074C21.1069 3.83553 22.2697 4.38275 23.2281 5.20445C24.1865 6.02615 24.9049 7.09174 25.3071 8.28838C25.7093 9.48501 25.7804 10.7682 25.5129 12.0019C25.2454 13.2357 24.6493 14.3741 23.7876 15.2967L23.5776 15.5126L23.5216 15.5604L14.8299 24.1692C14.6293 24.3678 14.3636 24.4868 14.0819 24.5044C13.8003 24.522 13.5218 24.4369 13.2981 24.2649L13.1884 24.1692L4.44656 15.5102C3.52049 14.6092 2.86188 13.4694 2.54368 12.217C2.22549 10.9647 2.26012 9.64878 2.64374 8.41494C3.02736 7.18109 3.745 6.0775 4.71719 5.22639C5.68937 4.37527 6.87816 3.80985 8.1519 3.59274Z" fill="#FF834F"/>
</svg>
