<svg width="24" height="24" viewBox="0 0 24 24" fill="none" xmlns="http://www.w3.org/2000/svg">
<path d="M12 19.75C11.8012 19.7498 11.6105 19.6707 11.47 19.53L4.7 12.74C3.78386 11.8054 3.27071 10.5488 3.27071 9.24C3.27071 7.93123 3.78386 6.67464 4.7 5.74C5.62829 4.8118 6.88727 4.29035 8.2 4.29035C9.51273 4.29035 10.7717 4.8118 11.7 5.74L12 6L12.28 5.72C12.739 5.256 13.2857 4.88795 13.8883 4.6373C14.4909 4.38664 15.1373 4.25839 15.79 4.26C16.4419 4.25708 17.088 4.38376 17.6905 4.63268C18.2931 4.8816 18.8402 5.2478 19.3 5.71C20.2161 6.64464 20.7293 7.90123 20.7293 9.21C20.7293 10.5188 20.2161 11.7754 19.3 12.71L12.53 19.5C12.463 19.5751 12.3815 19.636 12.2904 19.6789C12.1994 19.7219 12.1006 19.746 12 19.75ZM8.21 5.75C7.75583 5.74669 7.3055 5.83336 6.885 6.00499C6.46449 6.17662 6.08214 6.42983 5.76 6.75C5.11087 7.40215 4.74645 8.28485 4.74645 9.205C4.74645 10.1251 5.11087 11.0078 5.76 11.66L12 17.94L18.23 11.68C18.5526 11.3577 18.8086 10.975 18.9832 10.5538C19.1578 10.1325 19.2477 9.681 19.2477 9.225C19.2477 8.76899 19.1578 8.31746 18.9832 7.89621C18.8086 7.47496 18.5526 7.09227 18.23 6.77C17.9104 6.44923 17.5299 6.19554 17.1109 6.02381C16.6919 5.85209 16.2428 5.7658 15.79 5.77C15.3358 5.76669 14.8855 5.85336 14.465 6.02499C14.0445 6.19662 13.6621 6.44983 13.34 6.77L12.53 7.58C12.3869 7.71575 12.1972 7.79143 12 7.79143C11.8028 7.79143 11.6131 7.71575 11.47 7.58L10.66 6.77C10.3395 6.44622 9.9579 6.18932 9.53732 6.01423C9.11674 5.83913 8.66557 5.74931 8.21 5.75Z" fill="#FF834F"/>
</svg>
