<svg width="28" height="28" viewBox="0 0 28 28" fill="none" xmlns="http://www.w3.org/2000/svg">
<path d="M14.0001 15.0192C10.4112 15.0192 7.49154 12.0995 7.49154 8.51059C7.49154 4.92169 10.4112 2.00269 14.0001 2.00269C17.589 2.00269 20.5087 4.92239 20.5087 8.51129C20.5087 12.1002 17.589 15.0192 14.0001 15.0192ZM14.0001 2.62079C10.7528 2.62079 8.11034 5.26329 8.11034 8.51059C8.11034 11.7579 10.7528 14.4004 14.0001 14.4004C17.2474 14.4004 19.8899 11.7579 19.8899 8.51059C19.8899 5.26329 17.2474 2.62079 14.0001 2.62079ZM25.7797 25.9973H2.22054C2.17985 25.9975 2.13954 25.9896 2.10191 25.9741C2.06429 25.9586 2.03011 25.9358 2.00134 25.9071C1.97258 25.8783 1.94979 25.8441 1.93431 25.8065C1.91883 25.7689 1.91095 25.7286 1.91114 25.6879V21.693C2.19324 16.6187 6.76494 16.3128 6.81114 16.31L21.1702 16.3093C21.2332 16.3121 25.8063 16.6187 26.0877 21.6755L26.0884 25.6879C26.0886 25.7285 26.0808 25.7688 26.0653 25.8063C26.0499 25.8439 26.0272 25.8781 25.9985 25.9068C25.9698 25.9356 25.9357 25.9584 25.8981 25.9739C25.8606 25.9894 25.8204 25.9974 25.7797 25.9973ZM2.52994 25.3792H25.4703V21.693C25.2197 17.2004 21.32 16.9365 21.1541 16.9274L6.82864 16.9281C6.68024 16.9372 2.78054 17.2151 2.52994 21.7098V25.3792Z" fill="#111111"/>
</svg>
