<svg width="28" height="28" viewBox="0 0 28 28" fill="none" xmlns="http://www.w3.org/2000/svg">
<path d="M22.8661 9.27495H5.13369C5.04087 9.27495 4.95184 9.23808 4.8862 9.17244C4.82057 9.1068 4.78369 9.01778 4.78369 8.92495C4.78369 8.83213 4.82057 8.7431 4.8862 8.67746C4.95184 8.61183 5.04087 8.57495 5.13369 8.57495H22.8661C22.9589 8.57495 23.0479 8.61183 23.1136 8.67746C23.1792 8.7431 23.2161 8.83213 23.2161 8.92495C23.2161 9.01778 23.1792 9.1068 23.1136 9.17244C23.0479 9.23808 22.9589 9.27495 22.8661 9.27495ZM22.8661 14.35H5.13369C5.04087 14.35 4.95184 14.3131 4.8862 14.2474C4.82057 14.1818 4.78369 14.0928 4.78369 14C4.78369 13.9071 4.82057 13.8181 4.8862 13.7525C4.95184 13.6868 5.04087 13.65 5.13369 13.65H22.8661C22.9589 13.65 23.0479 13.6868 23.1136 13.7525C23.1792 13.8181 23.2161 13.9071 23.2161 14C23.2161 14.0928 23.1792 14.1818 23.1136 14.2474C23.0479 14.3131 22.9589 14.35 22.8661 14.35ZM22.8661 19.425H5.13369C5.04087 19.425 4.95184 19.3881 4.8862 19.3224C4.82057 19.2568 4.78369 19.1678 4.78369 19.075C4.78369 18.9821 4.82057 18.8931 4.8862 18.8275C4.95184 18.7618 5.04087 18.725 5.13369 18.725H22.8661C22.9589 18.725 23.0479 18.7618 23.1136 18.8275C23.1792 18.8931 23.2161 18.9821 23.2161 19.075C23.2161 19.1678 23.1792 19.2568 23.1136 19.3224C23.0479 19.3881 22.9589 19.425 22.8661 19.425Z" fill="black"/>
</svg>
