<svg width="28" height="28" viewBox="0 0 28 28" fill="none" xmlns="http://www.w3.org/2000/svg">
<path d="M17.3304 19.6455C12.6194 19.6455 8.7876 15.813 8.7876 11.102C8.7876 6.39103 12.6201 2.55713 17.3304 2.55713C22.0407 2.55713 25.8732 6.39033 25.8732 11.102C25.8732 15.813 22.0407 19.6455 17.3304 19.6455ZM17.3304 3.17313C12.9589 3.17313 9.4029 6.73053 9.4029 11.1027C9.4029 15.4749 12.9589 19.0309 17.3304 19.0309C21.7019 19.0309 25.2579 15.4742 25.2579 11.1027C25.2579 6.73053 21.7019 3.17313 17.3304 3.17313Z" fill="#111111"/>
<path d="M2.43463 25.4423C2.37223 25.4421 2.31135 25.423 2.26005 25.3875C2.20875 25.352 2.16946 25.3017 2.14738 25.2433C2.12529 25.1849 2.12145 25.1213 2.13637 25.0607C2.1513 25.0001 2.18427 24.9454 2.23093 24.904L11.4121 16.8204C11.4738 16.7704 11.5525 16.7462 11.6316 16.7528C11.7108 16.7594 11.7843 16.7963 11.8369 16.8558C11.8895 16.9154 11.917 16.9929 11.9138 17.0723C11.9105 17.1516 11.8768 17.2267 11.8195 17.2817L2.63763 25.3653C2.58155 25.4148 2.5094 25.4421 2.43463 25.4423Z" fill="#111111"/>
</svg>
