<svg width="22" height="25" viewBox="0 0 22 25" fill="none" xmlns="http://www.w3.org/2000/svg">
<path fill-rule="evenodd" clip-rule="evenodd" d="M3 9.87916C2.73478 9.87916 2.48043 9.97679 2.29289 10.1506C2.10536 10.3244 2 10.5601 2 10.8058V21.9259C2 22.1716 2.10536 22.4073 2.29289 22.5811C2.48043 22.7549 2.73478 22.8525 3 22.8525H19C19.2652 22.8525 19.5196 22.7549 19.7071 22.5811C19.8946 22.4073 20 22.1716 20 21.9259V10.8058C20 10.5601 19.8946 10.3244 19.7071 10.1506C19.5196 9.97679 19.2652 9.87916 19 9.87916H16.5C16.2348 9.87916 15.9804 9.78153 15.7929 9.60775C15.6054 9.43396 15.5 9.19826 15.5 8.95249C15.5 8.70673 15.6054 8.47102 15.7929 8.29724C15.9804 8.12346 16.2348 8.02582 16.5 8.02582H19C19.7957 8.02582 20.5587 8.31872 21.1213 8.84007C21.6839 9.36142 22 10.0685 22 10.8058V21.9259C22 22.6632 21.6839 23.3703 21.1213 23.8916C20.5587 24.413 19.7957 24.7059 19 24.7059H3C2.20435 24.7059 1.44129 24.413 0.87868 23.8916C0.316071 23.3703 0 22.6632 0 21.9259V10.8058C0 10.0685 0.316071 9.36142 0.87868 8.84007C1.44129 8.31872 2.20435 8.02582 3 8.02582H5.5C5.76522 8.02582 6.01957 8.12346 6.20711 8.29724C6.39464 8.47102 6.5 8.70673 6.5 8.95249C6.5 9.19826 6.39464 9.43396 6.20711 9.60775C6.01957 9.78153 5.76522 9.87916 5.5 9.87916H3ZM10 3.64453L7.136 6.29851C6.96539 6.44583 6.73973 6.52603 6.50657 6.52222C6.27341 6.51841 6.05095 6.43088 5.88605 6.27808C5.72116 6.12527 5.6267 5.91912 5.62259 5.70306C5.61848 5.487 5.70502 5.27789 5.864 5.11979L10.364 0.949778C10.5328 0.793597 10.7615 0.705872 11 0.705872C11.2385 0.705872 11.4673 0.793597 11.636 0.949778L16.136 5.11979C16.295 5.27789 16.3815 5.487 16.3774 5.70306C16.3733 5.91912 16.2788 6.12527 16.1139 6.27808C15.9491 6.43088 15.7266 6.51841 15.4934 6.52222C15.2603 6.52603 15.0346 6.44583 14.864 6.29851L12 3.64453V16.3658C12 16.6116 11.8946 16.8473 11.7071 17.0211C11.5196 17.1949 11.2652 17.2925 11 17.2925C10.7348 17.2925 10.4804 17.1949 10.2929 17.0211C10.1054 16.8473 10 16.6116 10 16.3658V3.64453Z" fill="#FF834F"/>
</svg>
