<svg width="24" height="25" viewBox="0 0 24 25" fill="none" xmlns="http://www.w3.org/2000/svg">
<path fill-rule="evenodd" clip-rule="evenodd" d="M1.90831 16.9696C-1.16541 9.2037 4.38452 0.705872 12.5296 0.705872H12.9685C15.894 0.706618 18.6995 1.90337 20.7682 4.033C22.8368 6.16264 23.9993 9.05083 24 12.0626C24.0004 13.723 23.6829 15.3673 23.0659 16.9014C22.4488 18.4355 21.5442 19.8295 20.4037 21.0036C19.2632 22.1777 17.9092 23.109 16.419 23.7442C14.9288 24.3795 13.3317 24.7062 11.7188 24.7059H1.0264C0.813943 24.7061 0.606676 24.6383 0.433237 24.512C0.259797 24.3857 0.128747 24.207 0.0581955 24.0007C-0.012356 23.7944 -0.0189256 23.5707 0.0393945 23.3604C0.0977146 23.15 0.218045 22.9636 0.383758 22.8267L3.07873 20.5984C3.13635 20.5509 3.17748 20.4855 3.19597 20.4119C3.21445 20.3383 3.2093 20.2605 3.18128 20.1902L1.90831 16.9696ZM12.5296 2.81731C5.83934 2.81731 1.28208 9.7949 3.80614 16.1729L5.08048 19.3949C5.27464 19.8861 5.30966 20.4286 5.18033 20.9419C5.051 21.4552 4.76423 21.9119 4.36264 22.2439L3.94014 22.5944H11.7188C13.0623 22.5948 14.3928 22.3226 15.6342 21.7935C16.8755 21.2644 18.0034 20.4886 18.9535 19.5106C19.9035 18.5325 20.657 17.3713 21.171 16.0934C21.685 14.8154 21.9494 13.4458 21.949 12.0626C21.9483 9.61082 21.0019 7.25968 19.3179 5.52601C17.6339 3.79235 15.3501 2.81805 12.9685 2.81731H12.5296Z" fill="#FF834F"/>
</svg>
