<svg width="28" height="28" viewBox="0 0 28 28" fill="none" xmlns="http://www.w3.org/2000/svg">
<path fill-rule="evenodd" clip-rule="evenodd" d="M5.38922 17.5338C2.76655 11.0973 7.50205 4.05414 14.4519 4.05414H14.8264C17.3226 4.05476 19.7164 5.04664 21.4815 6.81173C23.2465 8.57681 24.2384 10.9706 24.239 13.4668C24.2394 14.843 23.9685 16.2058 23.442 17.4773C22.9155 18.7488 22.1436 19.9041 21.1705 20.8773C20.1974 21.8504 19.0421 22.6223 17.7706 23.1488C16.499 23.6753 15.1363 23.9461 13.7601 23.9458H4.63672C4.45544 23.946 4.27859 23.8898 4.1306 23.7851C3.98261 23.6804 3.87079 23.5324 3.8106 23.3614C3.7504 23.1904 3.74479 23.0049 3.79455 22.8306C3.84432 22.6563 3.94699 22.5017 4.08838 22.3883L6.38788 20.5415C6.43705 20.5021 6.47214 20.4478 6.48792 20.3869C6.50369 20.3259 6.49929 20.2614 6.47538 20.2031L5.38922 17.5338ZM14.4519 5.80414C8.74338 5.80414 4.85488 11.5873 7.00855 16.8735L8.09588 19.544C8.26155 19.9511 8.29143 20.4007 8.18108 20.8262C8.07073 21.2516 7.82604 21.6301 7.48338 21.9053L7.12288 22.1958H13.7601C14.9064 22.1961 16.0417 21.9705 17.1009 21.532C18.16 21.0934 19.1224 20.4504 19.9331 19.6398C20.7437 18.8292 21.3867 17.8668 21.8252 16.8076C22.2638 15.7484 22.4894 14.6132 22.489 13.4668C22.4884 11.4347 21.6809 9.48606 20.244 8.04916C18.8071 6.61227 16.8585 5.80476 14.8264 5.80414H14.4519Z" fill="#FF834F"/>
</svg>
