<svg width="48" height="48" viewBox="0 0 48 48" fill="none" xmlns="http://www.w3.org/2000/svg">
<path d="M24.0034 39C27.2749 38.9993 30.4565 37.929 33.0633 35.9522C35.6702 33.9755 37.5592 31.2007 38.4427 28.0507C39.3262 24.9007 39.1556 21.5482 37.9569 18.5041C36.7582 15.4601 34.5972 12.8914 31.8032 11.1895C29.0092 9.48757 25.7354 8.74579 22.4806 9.07716C19.2259 9.40854 16.1688 10.7949 13.7751 13.025C11.3814 15.2551 9.78243 18.2066 9.22186 21.4298C8.66129 24.653 9.16984 27.971 10.67 30.8783L9.00337 39L17.125 37.3333C19.185 38.3983 21.525 39 24.0034 39Z" stroke="#FF834F" stroke-width="3" stroke-linecap="round" stroke-linejoin="round"/>
</svg>
