<svg width="16" height="16" viewBox="0 0 16 16" fill="none" xmlns="http://www.w3.org/2000/svg">
<path d="M15.0244 9.45236C15.0648 9.57856 15.1536 9.68357 15.2713 9.74432C15.3891 9.80507 15.5262 9.8166 15.6524 9.77638C15.9124 9.69237 16.0604 9.41236 15.9764 9.14834L15.976 9.14714C15.9404 9.04034 13.9367 3 7.99958 3C2.06365 3 0.0595374 9.04034 0.0243354 9.14754L0.0239354 9.14834C-0.0600692 9.41236 0.0839387 9.69237 0.347953 9.77638C0.611968 9.86038 0.891984 9.71637 0.975988 9.45236C1.04759 9.22835 2.77969 4.00006 7.99998 4.00006C13.2203 4.00006 14.9524 9.22835 15.0244 9.45236ZM7.99998 13.4006C8.95481 13.4006 9.87054 13.0213 10.5457 12.3461C11.2209 11.6709 11.6002 10.7552 11.6002 9.80038C11.6002 8.84555 11.2209 7.92982 10.5457 7.25465C9.87054 6.57948 8.95481 6.20018 7.99998 6.20018C7.04515 6.20018 6.12942 6.57948 5.45425 7.25465C4.77908 7.92982 4.39978 8.84555 4.39978 9.80038C4.39978 10.7552 4.77908 11.6709 5.45425 12.3461C6.12942 13.0213 7.04515 13.4006 7.99998 13.4006Z" fill="#FF834F"/>
</svg>
