<svg width="24" height="16" viewBox="0 0 24 16" fill="none" xmlns="http://www.w3.org/2000/svg">
<path d="M1.53755 10.2482C2.59622 5.16447 7.0218 1.55229 12 1.55229C16.9782 1.55229 21.4022 5.16447 22.4624 10.2482C22.5044 10.45 22.6248 10.6267 22.7972 10.7397C22.9695 10.8526 23.1797 10.8925 23.3814 10.8505C23.5831 10.8085 23.7599 10.6881 23.8729 10.5158C23.9858 10.3434 24.0257 10.1333 23.9837 9.93156C22.7776 4.14928 17.7326 0 12 0C6.26739 0 1.22244 4.14928 0.0163079 9.93156C-0.0256848 10.1333 0.0141792 10.3434 0.12713 10.5158C0.240081 10.6881 0.416867 10.8085 0.618597 10.8505C0.820327 10.8925 1.03048 10.8526 1.20281 10.7397C1.37515 10.6267 1.49556 10.45 1.53755 10.2482ZM11.9845 4.65688C13.4254 4.65688 14.8073 5.22928 15.8262 6.24817C16.8451 7.26706 17.4175 8.64897 17.4175 10.0899C17.4175 11.5308 16.8451 12.9127 15.8262 13.9316C14.8073 14.9505 13.4254 15.5229 11.9845 15.5229C10.5436 15.5229 9.16164 14.9505 8.14275 13.9316C7.12386 12.9127 6.55146 11.5308 6.55146 10.0899C6.55146 8.64897 7.12386 7.26706 8.14275 6.24817C9.16164 5.22928 10.5436 4.65688 11.9845 4.65688Z" fill="#FF834F"/>
</svg>
