<svg width="205" height="70" viewBox="0 0 205 70" fill="none" xmlns="http://www.w3.org/2000/svg">
<rect x="0.5" y="0.5" width="204" height="69" rx="4.5" stroke="#9747FF" stroke-dasharray="10 5"/>
<path fill-rule="evenodd" clip-rule="evenodd" d="M25.3892 38.5338C22.7666 32.0973 27.5021 25.0541 34.4519 25.0541H34.8264C37.3226 25.0548 39.7164 26.0466 41.4815 27.8117C43.2465 29.5768 44.2384 31.9706 44.239 34.4668C44.2394 35.843 43.9685 37.2058 43.442 38.4773C42.9155 39.7488 42.1436 40.9041 41.1705 41.8773C40.1974 42.8504 39.0421 43.6223 37.7706 44.1488C36.499 44.6753 35.1363 44.9461 33.7601 44.9458H24.6367C24.4554 44.946 24.2786 44.8898 24.1306 44.7851C23.9826 44.6804 23.8708 44.5324 23.8106 44.3614C23.7504 44.1904 23.7448 44.0049 23.7946 43.8306C23.8443 43.6563 23.947 43.5017 24.0884 43.3883L26.3879 41.5415C26.437 41.5021 26.4721 41.4478 26.4879 41.3869C26.5037 41.3259 26.4993 41.2614 26.4754 41.2031L25.3892 38.5338ZM34.4519 26.8041C28.7434 26.8041 24.8549 32.5873 27.0086 37.8735L28.0959 40.544C28.2616 40.9511 28.2914 41.4007 28.1811 41.8262C28.0707 42.2516 27.826 42.6301 27.4834 42.9053L27.1229 43.1958H33.7601C34.9064 43.1961 36.0417 42.9705 37.1009 42.532C38.16 42.0934 39.1224 41.4504 39.9331 40.6398C40.7437 39.8292 41.3867 38.8668 41.8252 37.8076C42.2638 36.7484 42.4894 35.6132 42.489 34.4668C42.4884 32.4347 41.6809 30.4861 40.244 29.0492C38.8071 27.6123 36.8585 26.8048 34.8264 26.8041H34.4519Z" fill="#FF834F"/>
<path fill-rule="evenodd" clip-rule="evenodd" d="M74.5333 32.153C74.2858 32.153 74.0484 32.2513 73.8734 32.4263C73.6983 32.6014 73.6 32.8388 73.6 33.0863V44.2863C73.6 44.5338 73.6983 44.7712 73.8734 44.9463C74.0484 45.1213 74.2858 45.2196 74.5333 45.2196H89.4667C89.7142 45.2196 89.9516 45.1213 90.1266 44.9463C90.3017 44.7712 90.4 44.5338 90.4 44.2863V33.0863C90.4 32.8388 90.3017 32.6014 90.1266 32.4263C89.9516 32.2513 89.7142 32.153 89.4667 32.153H87.1333C86.8858 32.153 86.6484 32.0546 86.4734 31.8796C86.2983 31.7046 86.2 31.4672 86.2 31.2196C86.2 30.9721 86.2983 30.7347 86.4734 30.5597C86.6484 30.3846 86.8858 30.2863 87.1333 30.2863H89.4667C90.2093 30.2863 90.9215 30.5813 91.4466 31.1064C91.9717 31.6315 92.2667 32.3437 92.2667 33.0863V44.2863C92.2667 45.0289 91.9717 45.7411 91.4466 46.2662C90.9215 46.7913 90.2093 47.0863 89.4667 47.0863H74.5333C73.7907 47.0863 73.0785 46.7913 72.5534 46.2662C72.0283 45.7411 71.7333 45.0289 71.7333 44.2863V33.0863C71.7333 32.3437 72.0283 31.6315 72.5534 31.1064C73.0785 30.5813 73.7907 30.2863 74.5333 30.2863H76.8667C77.1142 30.2863 77.3516 30.3846 77.5266 30.5597C77.7017 30.7347 77.8 30.9721 77.8 31.2196C77.8 31.4672 77.7017 31.7046 77.5266 31.8796C77.3516 32.0546 77.1142 32.153 76.8667 32.153H74.5333ZM81.0667 25.8735L78.3936 28.5466C78.2344 28.6949 78.0238 28.7757 77.8061 28.7719C77.5885 28.768 77.3809 28.6799 77.227 28.526C77.0731 28.3721 76.9849 28.1644 76.9811 27.9468C76.9772 27.7292 77.058 27.5186 77.2064 27.3594L81.4064 23.1594C81.5639 23.0021 81.7774 22.9137 82 22.9137C82.2226 22.9137 82.4361 23.0021 82.5936 23.1594L86.7936 27.3594C86.942 27.5186 87.0228 27.7292 87.0189 27.9468C87.0151 28.1644 86.9269 28.3721 86.773 28.526C86.6191 28.6799 86.4115 28.768 86.1939 28.7719C85.9763 28.7757 85.7656 28.6949 85.6064 28.5466L82.9333 25.8735V38.6863C82.9333 38.9338 82.835 39.1712 82.66 39.3463C82.4849 39.5213 82.2475 39.6196 82 39.6196C81.7525 39.6196 81.5151 39.5213 81.34 39.3463C81.165 39.1712 81.0667 38.9338 81.0667 38.6863V25.8735Z" fill="#FF834F"/>
<path d="M136.76 35.674L128.01 44.34L119.26 35.674C118.683 35.1124 118.228 34.4374 117.925 33.6914C117.621 32.9455 117.475 32.1448 117.497 31.3398C117.518 30.5347 117.705 29.7428 118.048 29.0139C118.39 28.285 118.88 27.6348 119.485 27.1044C120.091 26.5739 120.801 26.1746 121.568 25.9317C122.336 25.6888 123.146 25.6075 123.947 25.6929C124.747 25.7784 125.522 26.0287 126.221 26.4281C126.92 26.8275 127.529 27.3673 128.01 28.0137C128.492 27.372 129.102 26.8369 129.801 26.4417C130.499 26.0465 131.272 25.7999 132.071 25.7171C132.869 25.6344 133.676 25.7173 134.441 25.9608C135.206 26.2043 135.913 26.603 136.517 27.1321C137.12 27.6612 137.608 28.3092 137.95 29.0356C138.292 29.7619 138.48 30.551 138.503 31.3535C138.526 32.156 138.383 32.9545 138.083 33.6991C137.783 34.4438 137.332 35.1185 136.76 35.681" stroke="#FF834F" stroke-width="2.33333" stroke-linecap="round" stroke-linejoin="round"/>
<path d="M165.152 24.5927C166.184 24.4168 167.243 24.4748 168.251 24.7626C169.258 25.0503 170.187 25.5604 170.971 26.2552L171.014 26.2937L171.054 26.2587C171.802 25.6022 172.682 25.1128 173.634 24.8231C174.586 24.5334 175.589 24.4501 176.576 24.5787L176.863 24.6207C178.107 24.8355 179.27 25.3828 180.228 26.2045C181.187 27.0261 181.905 28.0917 182.307 29.2884C182.709 30.485 182.78 31.7682 182.513 33.0019C182.245 34.2357 181.649 35.3741 180.788 36.2967L180.578 36.5126L180.522 36.5604L171.83 45.1692C171.629 45.3678 171.364 45.4868 171.082 45.5044C170.8 45.522 170.522 45.4369 170.298 45.2649L170.188 45.1692L161.447 36.5102C160.52 35.6092 159.862 34.4694 159.544 33.217C159.225 31.9647 159.26 30.6488 159.644 29.4149C160.027 28.1811 160.745 27.0775 161.717 26.2264C162.689 25.3753 163.878 24.8098 165.152 24.5927Z" fill="#FF834F"/>
</svg>
