<svg width="28" height="28" viewBox="0 0 28 28" fill="none" xmlns="http://www.w3.org/2000/svg">
<path d="M22.7597 14.674L14.0097 23.34L5.25972 14.674C4.68258 14.1124 4.22797 13.4374 3.92453 12.6914C3.62108 11.9455 3.47538 11.1448 3.49658 10.3398C3.51779 9.53474 3.70545 8.74283 4.04774 8.0139C4.39003 7.28497 4.87955 6.63481 5.48546 6.10435C6.09137 5.5739 6.80055 5.17465 7.56834 4.93174C8.33613 4.68883 9.1459 4.60752 9.94665 4.69294C10.7474 4.77836 11.5218 5.02866 12.2211 5.42807C12.9203 5.82747 13.5293 6.36734 14.0097 7.01368C14.4922 6.37204 15.1019 5.83688 15.8007 5.44171C16.4995 5.04655 17.2723 4.79987 18.0708 4.71712C18.8693 4.63436 19.6763 4.71732 20.4413 4.9608C21.2063 5.20428 21.9128 5.60303 22.5165 6.1321C23.1203 6.66117 23.6084 7.30917 23.9502 8.03555C24.292 8.76193 24.4803 9.55104 24.5031 10.3535C24.5259 11.156 24.3829 11.9545 24.0829 12.6991C23.7829 13.4438 23.3324 14.1185 22.7597 14.681" stroke="#FF834F" stroke-width="2.33333" stroke-linecap="round" stroke-linejoin="round"/>
</svg>
