<svg width="24" height="26" viewBox="0 0 24 26" fill="none" xmlns="http://www.w3.org/2000/svg">
<path d="M12 23.8171C11.7267 23.8168 11.4646 23.7016 11.2714 23.4968L1.96481 13.6137C0.70542 12.2533 0 10.4242 0 8.51926C0 6.6143 0.70542 4.78527 1.96481 3.42485C3.24092 2.07382 4.97161 1.31483 6.7762 1.31483C8.5808 1.31483 10.3115 2.07382 11.5876 3.42485L12 3.80329L12.3849 3.39574C13.0159 2.72036 13.7674 2.18466 14.5958 1.81982C15.4242 1.45498 16.3129 1.26829 17.21 1.27064C18.1063 1.26639 18.9944 1.45078 19.8227 1.8131C20.651 2.17542 21.4031 2.70844 22.0352 3.38118C23.2946 4.7416 24 6.57063 24 8.4756C24 10.3806 23.2946 12.2096 22.0352 13.57L12.7286 23.4532C12.6364 23.5625 12.5244 23.6511 12.3992 23.7136C12.2741 23.7761 12.1383 23.8113 12 23.8171ZM6.78995 3.4394C6.16561 3.43459 5.54655 3.56074 4.96849 3.81056C4.39043 4.06038 3.86482 4.42893 3.42198 4.89495C2.52963 5.84419 2.02867 7.129 2.02867 8.46832C2.02867 9.80764 2.52963 11.0924 3.42198 12.0417L12 21.1825L20.5643 12.0708C21.0078 11.6017 21.3596 11.0447 21.5997 10.4315C21.8397 9.81839 21.9633 9.16117 21.9633 8.49743C21.9633 7.83369 21.8397 7.17646 21.5997 6.56332C21.3596 5.95017 21.0078 5.39314 20.5643 4.92406C20.1249 4.45717 19.6019 4.08791 19.0259 3.83796C18.4499 3.58801 17.8325 3.4624 17.21 3.46852C16.5857 3.4637 15.9666 3.58985 15.3886 3.83967C14.8105 4.08949 14.2849 4.45804 13.8421 4.92406L12.7286 6.10305C12.5319 6.30065 12.2711 6.4108 12 6.4108C11.7289 6.4108 11.4681 6.30065 11.2714 6.10305L10.1579 4.92406C9.71735 4.45279 9.19276 4.07887 8.6146 3.824C8.03643 3.56914 7.41622 3.43841 6.78995 3.4394Z" fill="#FF834F"/>
</svg>
