<svg width="16" height="16" viewBox="0 0 16 16" fill="none" xmlns="http://www.w3.org/2000/svg">
<path d="M3.99167 1.06816C4.6994 0.947576 5.42517 0.987355 6.11549 1.18457C6.8058 1.38178 7.44306 1.7314 7.98028 2.20765L8.00987 2.23404L8.03706 2.21005C8.54979 1.76009 9.15257 1.42464 9.80521 1.22608C10.4578 1.02752 11.1453 0.970411 11.8218 1.05857L12.0185 1.08735C12.8711 1.23458 13.6681 1.60965 14.325 2.17284C14.9819 2.73604 15.4743 3.4664 15.75 4.28659C16.0256 5.10677 16.0744 5.98625 15.8911 6.83188C15.7077 7.67751 15.2991 8.45781 14.7085 9.09017L14.5645 9.2381L14.5261 9.27089L8.56882 15.1714C8.43134 15.3075 8.2492 15.3891 8.05615 15.4012C7.8631 15.4132 7.67223 15.3549 7.51889 15.237L7.44372 15.1714L1.45201 9.2365C0.817267 8.6189 0.365854 7.83767 0.147759 6.97933C-0.0703362 6.12098 -0.0466007 5.21902 0.216336 4.37333C0.479273 3.52765 0.97115 2.77124 1.63749 2.18788C2.30384 1.60452 3.11864 1.21697 3.99167 1.06816Z" fill="#FF834F"/>
</svg>
