<svg width="28" height="28" viewBox="0 0 28 28" fill="none" xmlns="http://www.w3.org/2000/svg">
<path fill-rule="evenodd" clip-rule="evenodd" d="M6.53334 11.153C6.2858 11.153 6.04841 11.2513 5.87337 11.4263C5.69834 11.6014 5.6 11.8388 5.6 12.0863V23.2863C5.6 23.5338 5.69834 23.7712 5.87337 23.9463C6.04841 24.1213 6.2858 24.2196 6.53334 24.2196H21.4667C21.7142 24.2196 21.9516 24.1213 22.1266 23.9463C22.3017 23.7712 22.4 23.5338 22.4 23.2863V12.0863C22.4 11.8388 22.3017 11.6014 22.1266 11.4263C21.9516 11.2513 21.7142 11.153 21.4667 11.153H19.1333C18.8858 11.153 18.6484 11.0546 18.4734 10.8796C18.2983 10.7046 18.2 10.4672 18.2 10.2196C18.2 9.97209 18.2983 9.73469 18.4734 9.55966C18.6484 9.38462 18.8858 9.28629 19.1333 9.28629H21.4667C22.2093 9.28629 22.9215 9.58129 23.4466 10.1064C23.9717 10.6315 24.2667 11.3437 24.2667 12.0863V23.2863C24.2667 24.0289 23.9717 24.7411 23.4466 25.2662C22.9215 25.7913 22.2093 26.0863 21.4667 26.0863H6.53334C5.79073 26.0863 5.07854 25.7913 4.55344 25.2662C4.02834 24.7411 3.73334 24.0289 3.73334 23.2863V12.0863C3.73334 11.3437 4.02834 10.6315 4.55344 10.1064C5.07854 9.58129 5.79073 9.28629 6.53334 9.28629H8.86667C9.11421 9.28629 9.3516 9.38462 9.52664 9.55966C9.70167 9.73469 9.8 9.97209 9.8 10.2196C9.8 10.4672 9.70167 10.7046 9.52664 10.8796C9.3516 11.0546 9.11421 11.153 8.86667 11.153H6.53334ZM13.0667 4.87349L10.3936 7.54656C10.2344 7.69494 10.0238 7.77571 9.80614 7.77187C9.58852 7.76803 9.38089 7.67988 9.22699 7.52597C9.07309 7.37207 8.98493 7.16444 8.98109 6.94682C8.97725 6.7292 9.05803 6.51859 9.2064 6.35936L13.4064 2.15936C13.5639 2.00205 13.7774 1.9137 14 1.9137C14.2226 1.9137 14.4361 2.00205 14.5936 2.15936L18.7936 6.35936C18.942 6.51859 19.0228 6.7292 19.0189 6.94682C19.0151 7.16444 18.9269 7.37207 18.773 7.52597C18.6191 7.67988 18.4115 7.76803 18.1939 7.77187C17.9763 7.77571 17.7656 7.69494 17.6064 7.54656L14.9333 4.87349V17.6863C14.9333 17.9338 14.835 18.1712 14.66 18.3463C14.4849 18.5213 14.2475 18.6196 14 18.6196C13.7525 18.6196 13.5151 18.5213 13.34 18.3463C13.165 18.1712 13.0667 17.9338 13.0667 17.6863V4.87349Z" fill="#FF834F"/>
</svg>
