<svg width="514" height="247" viewBox="0 0 514 247" fill="none" xmlns="http://www.w3.org/2000/svg">
<path d="M471.501 8.11897V8.15258L471.506 8.18589C474.126 27.5856 490.738 42.5398 510.849 42.5398C511.742 42.5398 512.624 42.5013 513.5 42.4406V45.6825C509.04 45.9411 505.505 49.6376 505.505 54.1632C505.505 58.6888 509.04 62.3852 513.5 62.6439V65.8011C509.04 66.0597 505.505 69.7562 505.505 74.2817C505.505 78.8073 509.04 82.5038 513.5 82.7624V85.9196C509.04 86.1782 505.505 89.8747 505.505 94.4003C505.505 98.9258 509.04 102.622 513.5 102.881V106.038C509.04 106.297 505.505 109.993 505.505 114.519C505.505 119.044 509.04 122.741 513.5 122.999V126.157C509.04 126.415 505.505 130.112 505.505 134.637C505.505 139.163 509.04 142.859 513.5 143.118V146.275C509.04 146.534 505.505 150.23 505.505 154.756C505.505 159.281 509.04 162.978 513.5 163.237V166.394C509.04 166.652 505.505 170.349 505.505 174.875C505.505 179.4 509.04 183.097 513.5 183.355V186.512C509.04 186.771 505.505 190.467 505.505 194.993C505.505 199.519 509.04 203.215 513.5 203.474V214.711C512.623 214.65 511.742 214.612 510.849 214.612C491.813 214.612 475.896 228.014 472.036 245.904H41.9639C38.1046 228.014 22.2008 214.612 3.15132 214.612C2.25806 214.612 1.37648 214.65 0.5 214.711V203.474C4.96048 203.215 8.49512 199.519 8.49512 194.993C8.49512 190.467 4.96048 186.771 0.5 186.512V183.355C4.96048 183.097 8.49512 179.4 8.49512 174.875C8.49512 170.349 4.96048 166.652 0.5 166.394V163.237C4.96048 162.978 8.49512 159.281 8.49512 154.756C8.49512 150.23 4.96048 146.534 0.5 146.275V143.118C4.96048 142.859 8.49512 139.163 8.49512 134.637C8.49512 130.112 4.96048 126.415 0.5 126.157V122.999C4.96047 122.741 8.49512 119.044 8.49512 114.519C8.49512 109.993 4.96048 106.297 0.5 106.038V102.881C4.96048 102.622 8.49512 98.9258 8.49512 94.4003C8.49512 89.8747 4.96048 86.1782 0.5 85.9196V82.7624C4.96048 82.5038 8.49512 78.8073 8.49512 74.2817C8.49512 69.7562 4.96048 66.0597 0.5 65.8011V62.6439C4.96048 62.3852 8.49512 58.6888 8.49512 54.1632C8.49512 49.6376 4.96048 45.9411 0.5 45.6825V42.4406C1.37647 42.5013 2.25805 42.5398 3.15132 42.5398C23.2623 42.5398 39.8739 27.5856 42.494 8.18589L42.4985 8.15258V8.11897V0.5H471.501V8.11897Z" fill="white" stroke="#4D4D4D"/>
<line x1="42.5" y1="46" x2="42.5" y2="200" stroke="#4D4D4D"/>
<line x1="464.5" y1="46" x2="464.5" y2="200" stroke="#4D4D4D"/>
</svg>
